<svg version="1.1" xmlns="http://www.w3.org/2000/svg" viewBox="0 0 3234.5993740830845 2594.652243514365" width="3234.5993740830845" height="2594.652243514365">
  <!-- svg-source:excalidraw -->
  
  <defs>
    <style class="style-fonts">
      @font-face {
        font-family: "Virgil";
        src: url("https://excalidraw.com/Virgil.woff2");
      }
      @font-face {
        font-family: "Cascadia";
        src: url("https://excalidraw.com/Cascadia.woff2");
      }
      @font-face {
        font-family: "Assistant";
        src: url("https://excalidraw.com/Assistant-Regular.woff2");
      }
    </style>
    
  </defs>
  <g stroke-opacity="0.5" fill-opacity="0.5" transform="translate(1622.698865720325 1566.7661901348906) rotate(0 33.109962463378906 12.5)"><text x="0" y="0" font-family="Virgil, Segoe UI Emoji" font-size="20px" fill="#1e1e1e" text-anchor="start" style="white-space: pre;" direction="ltr" dominant-baseline="text-before-edge">service</text></g><g stroke-linecap="round" transform="translate(1548.2987802711064 1517.1663366192656) rotate(0 101.20001220703125 93.99999237060547)"><path d="M127.5 23.5 C135.78 31.07, 147.32 44.1, 176.9 70.5 M127.5 23.5 C142.92 38.31, 157.07 52.22, 176.9 70.5 M176.9 70.5 C202.08 95.85, 202.65 92.42, 176.9 117.5 M176.9 70.5 C204.31 94.02, 200.41 93.4, 176.9 117.5 M176.9 117.5 C167.38 127.86, 154.68 138.24, 127.5 164.5 M176.9 117.5 C157.22 136.51, 139.12 152.85, 127.5 164.5 M127.5 164.5 C101.22 186.33, 102.9 189.38, 76.5 164.5 M127.5 164.5 C103.64 188.63, 102.46 190.07, 76.5 164.5 M76.5 164.5 C60.23 151.16, 43.68 134.67, 25.5 117.5 M76.5 164.5 C59.44 150.23, 44.28 134.89, 25.5 117.5 M25.5 117.5 C0.16 92.77, -1.43 92.81, 25.5 70.5 M25.5 117.5 C-2.28 92.5, -2.01 95.8, 25.5 70.5 M25.5 70.5 C41.55 56.55, 60.68 41.56, 76.5 23.5 M25.5 70.5 C45.47 52.77, 65.04 34.47, 76.5 23.5 M76.5 23.5 C101.91 -0.51, 102.01 -0.65, 127.5 23.5 M76.5 23.5 C104.05 -2.21, 99.81 -2.23, 127.5 23.5" stroke="#1e1e1e" stroke-width="2" fill="none"></path></g><g transform="translate(1592.2987802711064 1589.1663061016875) rotate(0 62.47077178955078 20.10003662109375)"><text x="0" y="0" font-family="Virgil, Segoe UI Emoji" font-size="32.16005859374997px" fill="#1e1e1e" text-anchor="start" style="white-space: pre;" direction="ltr" dominant-baseline="text-before-edge">grafana</text></g><g stroke-linecap="round" transform="translate(2086.432081052356 1484.6330724591094) rotate(0 89.20001220703125 53.20002746582031)"><path d="M26.6 0 C73.66 -2.14, 122.38 -2.57, 151.8 0 M26.6 0 C53.95 0.34, 82.37 -0.25, 151.8 0 M151.8 0 C170.96 0.48, 176.94 9.77, 178.4 26.6 M151.8 0 C171.74 -2.07, 178.27 6.88, 178.4 26.6 M178.4 26.6 C176.43 44.04, 176.22 60.07, 178.4 79.8 M178.4 26.6 C178.05 39.9, 178.66 54.35, 178.4 79.8 M178.4 79.8 C180.13 95.57, 169.87 106.04, 151.8 106.4 M178.4 79.8 C176.74 96.25, 169.42 107.34, 151.8 106.4 M151.8 106.4 C110.07 107, 68.38 105.45, 26.6 106.4 M151.8 106.4 C119.14 107.35, 86.37 107.99, 26.6 106.4 M26.6 106.4 C8.85 106.42, -1.84 99.42, 0 79.8 M26.6 106.4 C8.22 107.32, 1.73 98.67, 0 79.8 M0 79.8 C1.95 58.77, -1.14 40.22, 0 26.6 M0 79.8 C-0.25 62.01, -0.19 46.25, 0 26.6 M0 26.6 C-1.59 7.84, 10.41 -1.52, 26.6 0 M0 26.6 C-0.3 8.57, 10.91 0.27, 26.6 0" stroke="#1e1e1e" stroke-width="2" fill="none"></path></g><g stroke-linecap="round" transform="translate(2084.2320078101684 1634.6330419415312) rotate(0 87.5999755859375 56.800018310546875)"><path d="M28.4 0 C63.6 -2.26, 97.95 -1.61, 146.8 0 M28.4 0 C62.11 0.72, 94.01 0.87, 146.8 0 M146.8 0 C164.07 -0.21, 176.79 9.16, 175.2 28.4 M146.8 0 C164.22 1.88, 175.53 11.3, 175.2 28.4 M175.2 28.4 C175.24 42.95, 174.64 58.76, 175.2 85.2 M175.2 28.4 C174.26 40.27, 174.73 50.99, 175.2 85.2 M175.2 85.2 C176.32 102.18, 167.3 115.21, 146.8 113.6 M175.2 85.2 C175.35 103.11, 163.93 113.32, 146.8 113.6 M146.8 113.6 C119.81 114.34, 88.29 114.78, 28.4 113.6 M146.8 113.6 C105.21 114.82, 62.56 113.65, 28.4 113.6 M28.4 113.6 C7.82 114.64, 1.33 104.68, 0 85.2 M28.4 113.6 C10.92 111.33, 0.89 102.83, 0 85.2 M0 85.2 C-2.24 71.9, -1.38 53.33, 0 28.4 M0 85.2 C1.11 72.57, -0.05 57.06, 0 28.4 M0 28.4 C1.89 10.56, 9.8 -1.91, 28.4 0 M0 28.4 C2.1 9, 7.23 0.09, 28.4 0" stroke="#1e1e1e" stroke-width="2" fill="none"></path></g><g transform="translate(2112.8321054664184 1496.6330724591094) rotate(0 60.28437042236328 16.5)"><text x="0" y="0" font-family="Virgil, Segoe UI Emoji" font-size="26.400000000000006px" fill="#1e1e1e" text-anchor="start" style="white-space: pre;" direction="ltr" dominant-baseline="text-before-edge">grafana-1</text></g><g transform="translate(2106.147601682239 1654.1331640118437) rotate(0 66.10557556152344 16.5)"><text x="0" y="0" font-family="Virgil, Segoe UI Emoji" font-size="26.400000000000006px" fill="#1e1e1e" text-anchor="start" style="white-space: pre;" direction="ltr" dominant-baseline="text-before-edge">grafana-2</text></g><g stroke-opacity="0.4" fill-opacity="0.4" transform="translate(2208.832227536731 1702.2330175274687) rotate(0 17.839981079101562 12.5)"><text x="0" y="0" font-family="Virgil, Segoe UI Emoji" font-size="20px" fill="#1e1e1e" text-anchor="start" style="white-space: pre;" direction="ltr" dominant-baseline="text-before-edge">Pod</text></g><g stroke-opacity="0.4" fill-opacity="0.4" transform="translate(2215.792173215442 1556.9330602520781) rotate(0 17.839981079101562 12.5)"><text x="0" y="0" font-family="Virgil, Segoe UI Emoji" font-size="20px" fill="#1e1e1e" text-anchor="start" style="white-space: pre;" direction="ltr" dominant-baseline="text-before-edge">Pod</text></g><g stroke-linecap="round" transform="translate(936.1319813616009 1085.933492584435) rotate(0 179.00001525878906 184.4999885559082)"><path d="M225 46.25 C250.82 72.67, 278.64 99.77, 313 138.75 M225 46.25 C258.23 79.16, 292.48 115.87, 313 138.75 M313 138.75 C357.13 186.23, 358.84 183.98, 313 231.25 M313 138.75 C359.67 185.81, 359.54 183.32, 313 231.25 M313 231.25 C283.09 262.91, 249.59 296.31, 225 322.75 M313 231.25 C286.01 257.96, 261.17 286.46, 225 322.75 M225 322.75 C181.16 368.02, 180 368.95, 135 322.75 M225 322.75 C178.1 368.67, 181.66 369.84, 135 322.75 M135 322.75 C109.91 300.8, 87.91 277.48, 45 231.25 M135 322.75 C105.51 292.76, 76.08 264.22, 45 231.25 M45 231.25 C-1.97 183.68, -0.63 185.12, 45 138.75 M45 231.25 C-1.51 186.27, -2.13 184.18, 45 138.75 M45 138.75 C67.51 118.49, 87.78 93.78, 135 46.25 M45 138.75 C80.02 102.04, 116.72 64.18, 135 46.25 M135 46.25 C178.04 -0.88, 181.27 0.28, 225 46.25 M135 46.25 C181.74 -0.17, 179.93 1.89, 225 46.25" stroke="#1e1e1e" stroke-width="2" fill="none"></path></g><g transform="translate(957.9320301897259 1257.933462066857) rotate(0 157.2198486328125 12.5)"><text x="0" y="0" font-family="Virgil, Segoe UI Emoji" font-size="20px" fill="#1e1e1e" text-anchor="start" style="white-space: pre;" direction="ltr" dominant-baseline="text-before-edge">grafana.p1-management-a.pnet.ch</text></g><g stroke-opacity="0.5" fill-opacity="0.5" transform="translate(1080.7157607289 1217.133413238732) rotate(0 38.43122863769531 14.78224842490502)"><text x="0" y="0" font-family="Virgil, Segoe UI Emoji" font-size="23.65159747984803px" fill="#1e1e1e" text-anchor="start" style="white-space: pre;" direction="ltr" dominant-baseline="text-before-edge">ingress</text></g><g stroke-linecap="round" transform="translate(2023.4654062476684 1391.7663935854116) rotate(0 396.66666666666674 242.6666768391927)"><path d="M32 0 C201.44 2.31, 371.92 1.43, 761.33 0 M32 0 C260.22 0.65, 488.75 0.66, 761.33 0 M761.33 0 C783.68 -0.53, 793.63 11.65, 793.33 32 M761.33 0 C780.62 2, 792.86 8.67, 793.33 32 M793.33 32 C794.12 167.87, 794.57 303.92, 793.33 453.33 M793.33 32 C793.38 128.51, 793.13 224.67, 793.33 453.33 M793.33 453.33 C792.91 475.89, 783.11 486.16, 761.33 485.33 M793.33 453.33 C794.06 474.77, 782.76 485.91, 761.33 485.33 M761.33 485.33 C533.42 486.83, 305.4 486.15, 32 485.33 M761.33 485.33 C540.77 484.33, 319.31 484.34, 32 485.33 M32 485.33 C9.21 486.53, 0.13 473.68, 0 453.33 M32 485.33 C9.52 483.37, 0.41 475.17, 0 453.33 M0 453.33 C1.11 347.42, -0.3 240.12, 0 32 M0 453.33 C1.44 350.87, 1.37 248.38, 0 32 M0 32 C0.7 9.33, 10.66 1.84, 32 0 M0 32 C0.61 10.67, 11.61 -0.67, 32 0" stroke="#1e1e1e" stroke-width="2" fill="none"></path></g><g transform="translate(2163.1987639950644 1415.2331294252554) rotate(0 48.776153564453125 15.699951171875)"><text x="0" y="0" font-family="Virgil, Segoe UI Emoji" font-size="25.119921875000035px" fill="#1e1e1e" text-anchor="start" style="white-space: pre;" direction="ltr" dominant-baseline="text-before-edge">grafana</text></g><g transform="translate(2340.2653736955854 1463.4997411602812) rotate(0 220.72348022460938 17.29998779296875)"><text x="0" y="0" font-family="Virgil, Segoe UI Emoji" font-size="27.67998046874996px" fill="#1e1e1e" text-anchor="start" style="white-space: pre;" direction="ltr" dominant-baseline="text-before-edge">root_url: pfport.pnet.ch/grafana</text></g><g stroke-linecap="round" transform="translate(705.198662269804 841.3002019757112) rotate(0 1112.4000244140625 574.8000183105466)"><path d="M32 0 C713.58 5.28, 1396.38 3.94, 2192.8 0 M32 0 C670.22 -1.56, 1309.08 -1.56, 2192.8 0 M2192.8 0 C2212.77 -0.41, 2223.02 9.41, 2224.8 32 M2192.8 0 C2214.92 1.37, 2226.62 8.6, 2224.8 32 M2224.8 32 C2226.03 394.32, 2226.46 757.79, 2224.8 1117.6 M2224.8 32 C2224.18 459.34, 2224.2 887.07, 2224.8 1117.6 M2224.8 1117.6 C2226.39 1137.9, 2213.32 1151.5, 2192.8 1149.6 M2224.8 1117.6 C2224.61 1138.5, 2213.83 1149.68, 2192.8 1149.6 M2192.8 1149.6 C1743.62 1148.59, 1295.07 1148.8, 32 1149.6 M2192.8 1149.6 C1616.35 1148.85, 1040.16 1148.76, 32 1149.6 M32 1149.6 C11.76 1151.51, -1.02 1140.31, 0 1117.6 M32 1149.6 C10.73 1150.65, -2.16 1138.03, 0 1117.6 M0 1117.6 C-2.37 854.54, -2.66 591.89, 0 32 M0 1117.6 C-3.1 698.08, -2.5 279.37, 0 32 M0 32 C-0.79 11.09, 11.57 0.5, 32 0 M0 32 C-2.08 11.18, 12.31 2.02, 32 0" stroke="#1e1e1e" stroke-width="2" fill="none"></path></g><g transform="translate(900.398857582304 868.500122630008) rotate(0 106.96370697021484 18.10000610351563)"><text x="0" y="0" font-family="Virgil, Segoe UI Emoji" font-size="28.960009765625006px" fill="#1e1e1e" text-anchor="start" style="white-space: pre;" direction="ltr" dominant-baseline="text-before-edge">appl-grafana-p1</text></g><g stroke-linecap="round" transform="translate(1823.631818601184 91.76680302958516) rotate(0 278.0000305175781 259.99999999999994)"><path d="M348.75 65 C386.71 102.42, 427.36 139.01, 486.25 195 M348.75 65 C384.5 100.18, 421.9 134.75, 486.25 195 M486.25 195 C554.03 258.97, 554.4 260.45, 486.25 325 M486.25 195 C553.9 258.96, 555.15 259.49, 486.25 325 M486.25 325 C443.69 367.82, 401.99 407.43, 348.75 455 M486.25 325 C444.99 361.86, 404.75 399.79, 348.75 455 M348.75 455 C279.6 518.93, 279.98 518.68, 209.25 455 M348.75 455 C277.13 518.7, 280 519.24, 209.25 455 M209.25 455 C166.52 418.08, 124.25 377.73, 69.75 325 M209.25 455 C177.61 425.79, 146.8 395.21, 69.75 325 M69.75 325 C1 259.03, -1.87 261.05, 69.75 195 M69.75 325 C-1.86 260.1, 1.04 261.44, 69.75 195 M69.75 195 C121.81 148.04, 169.76 102.1, 209.25 65 M69.75 195 C105.05 161.31, 137.9 129.81, 209.25 65 M209.25 65 C279.1 -0.33, 280.49 1.8, 348.75 65 M209.25 65 C279.99 -0.51, 278.33 -0.78, 348.75 65" stroke="#1e1e1e" stroke-width="2" fill="none"></path></g><g transform="translate(1977.632062741809 297.76674962382344) rotate(0 127.99262237548828 40.49999237060547)"><text x="0" y="0" font-family="Virgil, Segoe UI Emoji" font-size="64.79998779296875px" fill="#1e1e1e" text-anchor="start" style="white-space: pre;" direction="ltr" dominant-baseline="text-before-edge">pfportal</text></g><g stroke-linecap="round" transform="translate(1011.6320017066529 211.76684117655782) rotate(0 84.99999999999989 80)"><path d="M107.94 2.79 C118.65 4.36, 129.25 11.16, 138.2 18.12 C147.14 25.07, 156.45 34.79, 161.6 44.52 C166.74 54.26, 168.47 65.89, 169.07 76.54 C169.67 87.2, 169.08 98.47, 165.2 108.45 C161.32 118.44, 154 128.89, 145.81 136.47 C137.61 144.04, 126.82 150.11, 116.03 153.92 C105.23 157.74, 92.8 159.81, 81.04 159.36 C69.28 158.91, 55.7 156.24, 45.45 151.24 C35.2 146.24, 26.7 137.77, 19.55 129.36 C12.4 120.95, 5.63 111.27, 2.55 100.79 C-0.54 90.31, -0.68 77.19, 1.04 66.49 C2.75 55.79, 6.64 45.56, 12.82 36.59 C19 27.62, 28.21 18.6, 38.11 12.68 C48 6.76, 59.59 2.33, 72.19 1.07 C84.8 -0.19, 105.96 3.89, 113.74 5.12 C121.53 6.35, 119.35 7.2, 118.93 8.44 M50.11 5.97 C59.56 0.62, 73.68 0.03, 85.22 0.15 C96.76 0.27, 108.55 2.12, 119.35 6.71 C130.14 11.29, 142.34 19.55, 149.98 27.66 C157.61 35.76, 162.04 44.96, 165.14 55.36 C168.24 65.76, 169.76 79.26, 168.58 90.05 C167.41 100.84, 163.71 110.79, 158.12 120.11 C152.53 129.44, 144.29 139.75, 135.05 145.99 C125.82 152.24, 114.21 155.6, 102.7 157.58 C91.19 159.55, 77.22 159.82, 65.98 157.82 C54.74 155.83, 44.48 151.81, 35.28 145.61 C26.07 139.41, 16.43 130.49, 10.73 120.63 C5.03 110.76, 1.98 97.43, 1.07 86.41 C0.17 75.39, 1.62 64.58, 5.29 54.5 C8.96 44.42, 15.25 33.83, 23.1 25.94 C30.95 18.05, 47.63 10.02, 52.4 7.17 C57.17 4.32, 51.39 7.84, 51.71 8.82" stroke="#1e1e1e" stroke-width="2" fill="none"></path></g><g stroke-linecap="round"><g transform="translate(1093.6319711890746 373.7668106589797) rotate(0 2.0000457763671875 65.99998474121088)"><path d="M-0.71 0.96 C0.04 22.97, 2.96 109.77, 3.82 131.75 M1.11 0.41 C1.75 22.63, 2.31 111.41, 2.77 133.15" stroke="#1e1e1e" stroke-width="2" fill="none"></path></g></g><mask></mask><g stroke-linecap="round"><g transform="translate(1099.632032224231 507.76682591776864) rotate(0 -35.999984741210824 28.000030517578125)"><path d="M-0.18 -0.29 C-12.19 8.77, -59.66 46.18, -71.57 55.52 M-1.73 -1.49 C-13.9 8.24, -60.55 47.07, -72.29 56.81" stroke="#1e1e1e" stroke-width="2" fill="none"></path></g></g><mask></mask><g stroke-linecap="round"><g transform="translate(1095.6319406714965 511.7668411765577) rotate(0 25 20.999984741210938)"><path d="M0.37 -0.36 C8.91 6.79, 42.25 35.66, 50.33 42.75 M-0.9 -1.6 C7.6 5.23, 40.88 33.49, 49.55 41.01" stroke="#1e1e1e" stroke-width="2" fill="none"></path></g></g><mask></mask><g stroke-linecap="round"><g transform="translate(1099.632032224231 423.7668106589796) rotate(0 70 -33.99997711181635)"><path d="M-0.62 0.98 C22.51 -10.48, 116.54 -56.93, 139.8 -68.52 M1.25 0.46 C24.13 -10.87, 115.4 -55.92, 138.74 -67.26" stroke="#1e1e1e" stroke-width="2" fill="none"></path></g></g><mask></mask><g stroke-linecap="round"><g transform="translate(1075.6319406714965 421.7668411765577) rotate(0 -49.999999999999886 -17.999992370605412)"><path d="M-0.59 -0.56 C-17.28 -6.48, -82.83 -30.4, -99.29 -36.12 M1.3 1.76 C-15.55 -3.91, -83.02 -28.25, -99.86 -34.64" stroke="#1e1e1e" stroke-width="2" fill="none"></path></g></g><mask></mask><g stroke-linecap="round"><g transform="translate(1195.6319406714965 429.76687169413583) rotate(0 335.0000762939453 -6.000022888183594)"><path d="M0.94 -0.21 C112.26 -2.34, 557.38 -10.11, 669 -11.9 M-0.02 -1.37 C111.56 -3.37, 559.47 -8.42, 671.19 -10.31" stroke="#e03131" stroke-width="2" fill="none"></path></g><g transform="translate(1195.6319406714965 429.76687169413583) rotate(0 335.0000762939453 -6.000022888183594)"><path d="M647.82 -1.44 C656.59 -6.78, 666.31 -7.47, 671.19 -10.31 M647.82 -1.44 C656 -5.14, 665.77 -7.5, 671.19 -10.31" stroke="#e03131" stroke-width="2" fill="none"></path></g><g transform="translate(1195.6319406714965 429.76687169413583) rotate(0 335.0000762939453 -6.000022888183594)"><path d="M647.58 -18.54 C656.57 -17.15, 666.39 -11.11, 671.19 -10.31 M647.58 -18.54 C655.85 -15.62, 665.71 -11.36, 671.19 -10.31" stroke="#e03131" stroke-width="2" fill="none"></path></g></g><mask></mask><g stroke-linecap="round"><g transform="translate(1931.6321542945434 487.76682591776864) rotate(0 -357.0000457763672 334.99999999999994)"><path d="M0.59 1.11 C-118.45 112.49, -594.16 557.22, -713.08 668.82 M-0.56 0.65 C-119.77 112.08, -594.78 558.38, -713.55 669.73" stroke="#e03131" stroke-width="2" fill="none"></path></g><g transform="translate(1931.6321542945434 487.76682591776864) rotate(0 -357.0000457763672 334.99999999999994)"><path d="M-702.27 647.42 C-704.74 657.76, -713 666.75, -713.55 669.73 M-702.27 647.42 C-705.69 654.62, -710.56 662.82, -713.55 669.73" stroke="#e03131" stroke-width="2" fill="none"></path></g><g transform="translate(1931.6321542945434 487.76682591776864) rotate(0 -357.0000457763672 334.99999999999994)"><path d="M-690.57 659.89 C-697.69 665.39, -710.55 669.48, -713.55 669.73 M-690.57 659.89 C-698.21 662.5, -707.28 666.23, -713.55 669.73" stroke="#e03131" stroke-width="2" fill="none"></path></g></g><mask></mask><g stroke-opacity="0.5" fill-opacity="0.5" transform="translate(1910.0488006161581 1043.3669744366487) rotate(0 33.109962463378906 12.5)"><text x="0" y="0" font-family="Virgil, Segoe UI Emoji" font-size="20px" fill="#1e1e1e" text-anchor="start" style="white-space: pre;" direction="ltr" dominant-baseline="text-before-edge">service</text></g><g stroke-linecap="round" transform="translate(1838.0486785458456 986.1671300762973) rotate(0 101.20001220703125 93.99999237060547)"><path d="M127.5 23.5 C138.27 33.87, 150.06 43.42, 176.9 70.5 M127.5 23.5 C145.81 42.08, 164.27 59.62, 176.9 70.5 M176.9 70.5 C203.73 95.35, 202.31 92.63, 176.9 117.5 M176.9 70.5 C202.71 95.41, 200.43 94.57, 176.9 117.5 M176.9 117.5 C163.47 129.11, 150.56 144.95, 127.5 164.5 M176.9 117.5 C161.75 131.92, 148.4 144.71, 127.5 164.5 M127.5 164.5 C100.82 186.46, 101.47 186.98, 76.5 164.5 M127.5 164.5 C102.51 187.33, 100.63 188.27, 76.5 164.5 M76.5 164.5 C67.43 152.58, 52.79 142.39, 25.5 117.5 M76.5 164.5 C55.48 146.88, 35.06 126.4, 25.5 117.5 M25.5 117.5 C0.02 94.45, -0.1 95.24, 25.5 70.5 M25.5 117.5 C-1.41 95.33, 2.16 96.14, 25.5 70.5 M25.5 70.5 C38.96 57.36, 54.93 43.32, 76.5 23.5 M25.5 70.5 C44.61 54.24, 61.68 37.09, 76.5 23.5 M76.5 23.5 C100.87 -0.85, 102.42 1.51, 127.5 23.5 M76.5 23.5 C99.81 1.77, 100.01 0.14, 127.5 23.5" stroke="#1e1e1e" stroke-width="2" fill="none"></path></g><g transform="translate(2242.048678545845 970.7384234984512) rotate(0 226.17686462402332 20.96377863029698)"><text x="0" y="0" font-family="Virgil, Segoe UI Emoji" font-size="33.542045808475166px" fill="#1e1e1e" text-anchor="start" style="white-space: pre;" direction="ltr" dominant-baseline="text-before-edge">grafana-auth-reverse-proxy</text></g><g stroke-linecap="round" transform="translate(2290.8487273739706 1050.966934763797) rotate(0 89.20001220703125 53.20002746582031)"><path d="M26.6 0 C62.79 0.33, 96.38 0.06, 151.8 0 M26.6 0 C74.27 0.31, 120.55 -1.05, 151.8 0 M151.8 0 C169.81 1.22, 176.69 9.36, 178.4 26.6 M151.8 0 C169.24 1.03, 177.02 9.51, 178.4 26.6 M178.4 26.6 C178.81 37.94, 180.18 49.12, 178.4 79.8 M178.4 26.6 C178.25 42.8, 178.58 60.02, 178.4 79.8 M178.4 79.8 C178.84 96.95, 168.34 106.64, 151.8 106.4 M178.4 79.8 C176.56 96.63, 167.48 108.65, 151.8 106.4 M151.8 106.4 C123.28 107.6, 91.64 105.11, 26.6 106.4 M151.8 106.4 C103.65 105.41, 55.42 105.8, 26.6 106.4 M26.6 106.4 C7.64 107.55, 1.88 99.39, 0 79.8 M26.6 106.4 C8.9 106.95, 0 95.47, 0 79.8 M0 79.8 C1.59 62.89, -1.42 44.43, 0 26.6 M0 79.8 C-0.31 61.36, 0.47 44.52, 0 26.6 M0 26.6 C-1.9 10.41, 7.14 0.13, 26.6 0 M0 26.6 C1.89 10.97, 8.55 1.68, 26.6 0" stroke="#1e1e1e" stroke-width="2" fill="none"></path></g><g transform="translate(2315.648654131783 1062.966934763797) rotate(0 30.333580017089844 16.5)"><text x="0" y="0" font-family="Virgil, Segoe UI Emoji" font-size="26.400000000000006px" fill="#1e1e1e" text-anchor="start" style="white-space: pre;" direction="ltr" dominant-baseline="text-before-edge">pod-1</text></g><g stroke-opacity="0.4" fill-opacity="0.4" transform="translate(2420.2088195370566 1123.2669225567658) rotate(0 17.839981079101562 12.5)"><text x="0" y="0" font-family="Virgil, Segoe UI Emoji" font-size="20px" fill="#1e1e1e" text-anchor="start" style="white-space: pre;" direction="ltr" dominant-baseline="text-before-edge">Pod</text></g><g stroke-linecap="round" transform="translate(2227.882052569283 958.1002558900992) rotate(0 277.8095063709077 144.3809363955543)"><path d="M32 0 C177.76 -0.99, 322.71 -0.38, 523.62 0 M32 0 C201.23 -0.19, 371.28 -0.59, 523.62 0 M523.62 0 C544.59 1.29, 554.74 11.04, 555.62 32 M523.62 0 C546.88 -2.17, 554.26 8.9, 555.62 32 M555.62 32 C554.14 92.5, 554.84 153.67, 555.62 256.76 M555.62 32 C553.41 89.94, 553.47 149.98, 555.62 256.76 M555.62 256.76 C557.43 278.87, 544.28 290.46, 523.62 288.76 M555.62 256.76 C554.45 275.86, 544.97 289.28, 523.62 288.76 M523.62 288.76 C379.05 288.29, 234.29 287.52, 32 288.76 M523.62 288.76 C364.53 286.69, 205.25 287.2, 32 288.76 M32 288.76 C12.42 287.02, 1.95 278.87, 0 256.76 M32 288.76 C9.55 289.51, -1.3 277.11, 0 256.76 M0 256.76 C-0.14 183.18, -1.35 113.98, 0 32 M0 256.76 C0.81 169, 0.57 79.95, 0 32 M0 32 C0.56 9.84, 10.57 0.83, 32 0 M0 32 C0.95 12.47, 11.59 -0.68, 32 0" stroke="#1e1e1e" stroke-width="2" fill="none"></path></g><g stroke-opacity="0.4" fill-opacity="0.4" transform="translate(2629.977331354625 1202.4811850195633) rotate(0 53.17994689941406 12.5)"><text x="0" y="0" font-family="Virgil, Segoe UI Emoji" font-size="20px" fill="#1e1e1e" text-anchor="start" style="white-space: pre;" direction="ltr" dominant-baseline="text-before-edge">Deployment</text></g><g stroke-linecap="round"><g transform="translate(1293.427999995471 1254.8318303259496) rotate(0 271.47421908214596 -76.74465013895005)"><path d="M-0.17 -0.73 C90.27 -26.49, 452.95 -129.29, 543.46 -154.56 M-1.72 1.5 C88.54 -24.15, 452.14 -127.65, 542.79 -153.58" stroke="#e03131" stroke-width="2" fill="none"></path></g><g transform="translate(1293.427999995471 1254.8318303259496) rotate(0 271.47421908214596 -76.74465013895005)"><path d="M522.54 -138.91 C528.77 -143.42, 535.66 -149.73, 542.79 -153.58 M522.54 -138.91 C530.73 -145.69, 539.2 -150.16, 542.79 -153.58" stroke="#e03131" stroke-width="2" fill="none"></path></g><g transform="translate(1293.427999995471 1254.8318303259496) rotate(0 271.47421908214596 -76.74465013895005)"><path d="M517.85 -155.36 C525.81 -153.81, 534.43 -154.06, 542.79 -153.58 M517.85 -155.36 C527.87 -155.63, 538.2 -153.57, 542.79 -153.58" stroke="#e03131" stroke-width="2" fill="none"></path></g></g><mask></mask><g stroke-linecap="round"><g transform="translate(2053.6319711890746 1079.528700162095) rotate(0 71.99996948242188 0)"><path d="M-0.38 0.61 C23.65 0.83, 120.71 0.72, 144.97 0.77 M1.62 -0.12 C25.5 -0.18, 120.63 -0.8, 144.54 -0.95" stroke="#e03131" stroke-width="2" fill="none"></path></g><g transform="translate(2053.6319711890746 1079.528700162095) rotate(0 71.99996948242188 0)"><path d="M121.1 7.75 C130.78 6.24, 139.67 3.39, 144.54 -0.95 M121.1 7.75 C129.96 3.51, 139.32 1.05, 144.54 -0.95" stroke="#e03131" stroke-width="2" fill="none"></path></g><g transform="translate(2053.6319711890746 1079.528700162095) rotate(0 71.99996948242188 0)"><path d="M120.99 -9.35 C130.63 -4.57, 139.56 -1.13, 144.54 -0.95 M120.99 -9.35 C129.87 -7.24, 139.27 -3.34, 144.54 -0.95" stroke="#e03131" stroke-width="2" fill="none"></path></g></g><mask></mask><g stroke-linecap="round"><g transform="translate(2291.6321542945434 939.528700162095) rotate(0 -81.00006103515625 -161.99996948242188)"><path d="M-0.61 0.45 C-27.88 -53.58, -136.07 -269.52, -162.97 -323.56 M1.28 -0.36 C-25.69 -54.81, -133.43 -271.78, -160.77 -325.46" stroke="#e03131" stroke-width="2" fill="none"></path></g><g transform="translate(2291.6321542945434 939.528700162095) rotate(0 -81.00006103515625 -161.99996948242188)"><path d="M-142.59 -308.3 C-148.39 -316.1, -154.87 -320.55, -160.77 -325.46 M-142.59 -308.3 C-149.07 -312.88, -153.57 -318.3, -160.77 -325.46" stroke="#e03131" stroke-width="2" fill="none"></path></g><g transform="translate(2291.6321542945434 939.528700162095) rotate(0 -81.00006103515625 -161.99996948242188)"><path d="M-157.87 -300.62 C-158.28 -311.08, -159.33 -318.26, -160.77 -325.46 M-157.87 -300.62 C-159.5 -307.7, -159.19 -315.53, -160.77 -325.46" stroke="#e03131" stroke-width="2" fill="none"></path></g></g><mask></mask><g stroke-linecap="round"><g transform="translate(2167.6319101539184 583.528715420884) rotate(0 90 177.00000762939453)"><path d="M0.95 -0.55 C30.8 58.57, 149.17 295.96, 178.94 355.06 M-0.01 1.78 C30.22 60.55, 151.33 294.55, 181.1 353.49" stroke="#e03131" stroke-width="2" fill="none"></path></g><g transform="translate(2167.6319101539184 583.528715420884) rotate(0 90 177.00000762939453)"><path d="M162.78 336.48 C167.14 339.42, 175.05 345.33, 181.1 353.49 M162.78 336.48 C167.65 340.65, 172.82 347.09, 181.1 353.49" stroke="#e03131" stroke-width="2" fill="none"></path></g><g transform="translate(2167.6319101539184 583.528715420884) rotate(0 90 177.00000762939453)"><path d="M178 328.68 C178.04 333.97, 181.6 342.1, 181.1 353.49 M178 328.68 C178.18 335.28, 178.71 344.1, 181.1 353.49" stroke="#e03131" stroke-width="2" fill="none"></path></g></g><mask></mask><g stroke-linecap="round"><g transform="translate(2731.232129880481 935.5287917148294) rotate(0 -162.80001831054676 -292.00002288818354)"><path d="M0.41 -0.87 C-22.1 -74.55, -79.5 -344.4, -133.85 -441.63 C-188.19 -538.86, -293.89 -560.41, -325.66 -584.22 M-0.84 1.29 C-23.62 -72.8, -80.65 -346.17, -134.92 -443.56 C-189.19 -540.94, -294.4 -559.68, -326.46 -583.03" stroke="#2f9e44" stroke-width="2" fill="none"></path></g><g transform="translate(2731.232129880481 935.5287917148294) rotate(0 -162.80001831054676 -292.00002288818354)"><path d="M-301.6 -580.44 C-312.94 -581.79, -320.77 -582.52, -326.46 -583.03 M-301.6 -580.44 C-307.87 -581.11, -315.37 -582.89, -326.46 -583.03" stroke="#2f9e44" stroke-width="2" fill="none"></path></g><g transform="translate(2731.232129880481 935.5287917148294) rotate(0 -162.80001831054676 -292.00002288818354)"><path d="M-309.08 -565.06 C-317.51 -572.55, -322.36 -579.39, -326.46 -583.03 M-309.08 -565.06 C-313.4 -570.02, -318.79 -576.13, -326.46 -583.03" stroke="#2f9e44" stroke-width="2" fill="none"></path></g></g><mask></mask><g stroke-linecap="round"><g transform="translate(1205.6318898088662 469.86210470311073) rotate(0 330.66670735677076 -2.6666768391926894)"><path d="M-0.52 -0.29 C109.68 -1.32, 551.69 -5.3, 661.96 -6.13 M1.4 -1.48 C111.44 -2.38, 551.54 -4.61, 661.33 -5" stroke="#2f9e44" stroke-width="2" fill="none"></path></g><g transform="translate(1205.6318898088662 469.86210470311073) rotate(0 330.66670735677076 -2.6666768391926894)"><path d="M637.88 3.65 C645.88 1.66, 653.51 -2.93, 661.33 -5 M637.88 3.65 C645.58 0.32, 651.57 -2.38, 661.33 -5" stroke="#2f9e44" stroke-width="2" fill="none"></path></g><g transform="translate(1205.6318898088662 469.86210470311073) rotate(0 330.66670735677076 -2.6666768391926894)"><path d="M637.8 -13.45 C645.83 -9.26, 653.5 -7.66, 661.33 -5 M637.8 -13.45 C645.64 -11.52, 651.65 -8.95, 661.33 -5" stroke="#2f9e44" stroke-width="2" fill="none"></path></g></g><mask></mask><g stroke-linecap="round"><g transform="translate(1946.9653045224077 512.5287306796732) rotate(0 -346.6666666666665 333.3333333333332)"><path d="M-0.01 1.2 C-115.48 112.32, -577.17 555.34, -692.92 666.26 M-1.47 0.78 C-117.06 112.11, -578.53 556.38, -693.65 667.58" stroke="#2f9e44" stroke-width="2" fill="none"></path></g><g transform="translate(1946.9653045224077 512.5287306796732) rotate(0 -346.6666666666665 333.3333333333332)"><path d="M-682.67 645.12 C-683.97 652.38, -689.86 656.34, -693.65 667.58 M-682.67 645.12 C-685.28 651.57, -688.48 657.8, -693.65 667.58" stroke="#2f9e44" stroke-width="2" fill="none"></path></g><g transform="translate(1946.9653045224077 512.5287306796732) rotate(0 -346.6666666666665 333.3333333333332)"><path d="M-670.8 657.43 C-675.52 661.09, -684.89 661.45, -693.65 667.58 M-670.8 657.43 C-676.86 660.13, -683.62 662.66, -693.65 667.58" stroke="#2f9e44" stroke-width="2" fill="none"></path></g></g><mask></mask><g stroke-linecap="round"><g transform="translate(1317.6322153296996 1280.5288120598811) rotate(0 266.6666666666665 -77.3333740234375)"><path d="M1.19 -0.08 C90.13 -25.55, 445.06 -128.04, 533.94 -153.73 M0.35 -1.17 C89.16 -26.88, 444.33 -129.51, 533.3 -155.36" stroke="#2f9e44" stroke-width="2" fill="none"></path></g><g transform="translate(1317.6322153296996 1280.5288120598811) rotate(0 266.6666666666665 -77.3333740234375)"><path d="M513.12 -140.61 C519.66 -144.6, 527.93 -148.61, 533.3 -155.36 M513.12 -140.61 C520.88 -146.12, 527.25 -151.48, 533.3 -155.36" stroke="#2f9e44" stroke-width="2" fill="none"></path></g><g transform="translate(1317.6322153296996 1280.5288120598811) rotate(0 266.6666666666665 -77.3333740234375)"><path d="M508.36 -157.04 C516.32 -155.73, 526.14 -154.4, 533.3 -155.36 M508.36 -157.04 C517.58 -156.98, 525.57 -156.76, 533.3 -155.36" stroke="#2f9e44" stroke-width="2" fill="none"></path></g></g><mask></mask><g stroke-linecap="round"><g transform="translate(2048.2987192359496 1104.5289544752459) rotate(0 75.99995930989553 -1.3334147135417425)"><path d="M-0.6 -0.97 C24.79 -1.46, 127.48 -2.9, 152.97 -3.03 M1.28 1.14 C26.55 0.82, 127.45 -0.89, 152.53 -1.68" stroke="#2f9e44" stroke-width="2" fill="none"></path></g><g transform="translate(2048.2987192359496 1104.5289544752459) rotate(0 75.99995930989553 -1.3334147135417425)"><path d="M129.24 7.41 C135.78 5.97, 144.95 1.77, 152.53 -1.68 M129.24 7.41 C138.69 3.33, 146.21 -0.39, 152.53 -1.68" stroke="#2f9e44" stroke-width="2" fill="none"></path></g><g transform="translate(2048.2987192359496 1104.5289544752459) rotate(0 75.99995930989553 -1.3334147135417425)"><path d="M128.85 -9.68 C135.52 -5.14, 144.82 -3.36, 152.53 -1.68 M128.85 -9.68 C138.56 -7.33, 146.23 -4.61, 152.53 -1.68" stroke="#2f9e44" stroke-width="2" fill="none"></path></g></g><mask></mask><g stroke-linecap="round"><g transform="translate(2210.9655486630327 1109.097398511906) rotate(0 -269.16895973343935 201.58371866848717)"><path d="M-0.39 0.12 C-90.05 67.68, -448.12 337.24, -537.8 404.33 M1.61 -0.87 C-88.19 66.48, -448.31 335.39, -538.46 402.81" stroke="#2f9e44" stroke-width="2" fill="none"></path></g><g transform="translate(2210.9655486630327 1109.097398511906) rotate(0 -269.16895973343935 201.58371866848717)"><path d="M-524.76 381.9 C-529.1 389.41, -531.71 394.93, -538.46 402.81 M-524.76 381.9 C-528.82 387.32, -531.88 393.57, -538.46 402.81" stroke="#2f9e44" stroke-width="2" fill="none"></path></g><g transform="translate(2210.9655486630327 1109.097398511906) rotate(0 -269.16895973343935 201.58371866848717)"><path d="M-514.52 395.6 C-521.99 398.72, -527.86 399.9, -538.46 402.81 M-514.52 395.6 C-521.34 397.54, -527.03 400.29, -538.46 402.81" stroke="#2f9e44" stroke-width="2" fill="none"></path></g></g><mask></mask><g stroke-linecap="round"><g transform="translate(1786.7715538940574 1594.247472195708) rotate(0 145.4301272672999 -31.601768055798686)"><path d="M-0.18 -0.09 C48.27 -10.7, 241.87 -53.37, 290.2 -63.84 M-1.74 -1.18 C47.15 -11.63, 243.59 -52.59, 292.57 -62.64" stroke="#2f9e44" stroke-width="2" fill="none"></path></g><g transform="translate(1786.7715538940574 1594.247472195708) rotate(0 145.4301272672999 -31.601768055798686)"><path d="M271.3 -49.5 C276.67 -53.97, 281.24 -58.08, 292.57 -62.64 M271.3 -49.5 C278.39 -53.92, 284.8 -57.31, 292.57 -62.64" stroke="#2f9e44" stroke-width="2" fill="none"></path></g><g transform="translate(1786.7715538940574 1594.247472195708) rotate(0 145.4301272672999 -31.601768055798686)"><path d="M267.83 -66.25 C274.07 -66.38, 279.54 -66.17, 292.57 -62.64 M267.83 -66.25 C276.04 -65.3, 283.56 -63.3, 292.57 -62.64" stroke="#2f9e44" stroke-width="2" fill="none"></path></g></g><mask></mask><g stroke-linecap="round"><g transform="translate(1776.813284470276 1602.576296518092) rotate(0 146.4094247396074 44.567022795091816)"><path d="M0.44 0.01 C49.27 14.85, 243.51 74.74, 292.14 89.52 M-0.79 -1.02 C48.5 13.39, 245.84 72.47, 294.5 87.61" stroke="#2f9e44" stroke-width="2" fill="none"></path></g><g transform="translate(1776.813284470276 1602.576296518092) rotate(0 146.4094247396074 44.567022795091816)"><path d="M269.54 88.95 C275.3 87.42, 281.68 87.27, 294.5 87.61 M269.54 88.95 C276.09 89.45, 283.15 88.61, 294.5 87.61" stroke="#2f9e44" stroke-width="2" fill="none"></path></g><g transform="translate(1776.813284470276 1602.576296518092) rotate(0 146.4094247396074 44.567022795091816)"><path d="M274.51 72.59 C279.2 74.85, 284.43 78.46, 294.5 87.61 M274.51 72.59 C279.74 77.43, 285.48 80.94, 294.5 87.61" stroke="#2f9e44" stroke-width="2" fill="none"></path></g></g><mask></mask><g transform="translate(1589.6321339494907 358.1955397617045) rotate(0 93.6319580078125 17.5)"><text x="0" y="0" font-family="Virgil, Segoe UI Emoji" font-size="28px" fill="#e03131" text-anchor="start" style="white-space: pre;" direction="ltr" dominant-baseline="text-before-edge">/grafan/?login</text></g><g transform="translate(2075.489183800681 1032.0763584466) rotate(0 39.11598205566406 17.5)"><text x="0" y="0" font-family="Virgil, Segoe UI Emoji" font-size="28px" fill="#e03131" text-anchor="start" style="white-space: pre;" direction="ltr" dominant-baseline="text-before-edge">/auth</text></g><g transform="translate(1944.0606123721095 761.2192722649593) rotate(0 125.11793518066406 17.5)"><text x="0" y="0" font-family="Virgil, Segoe UI Emoji" font-size="28px" fill="#e03131" text-anchor="start" style="white-space: pre;" direction="ltr" dominant-baseline="text-before-edge">/auth/openid/auth</text></g><g transform="translate(2292.6320409435384 767.7906441608857) rotate(0 61.02598571777344 17.5)"><text x="0" y="0" font-family="Virgil, Segoe UI Emoji" font-size="28px" fill="#e03131" text-anchor="start" style="white-space: pre;" direction="ltr" dominant-baseline="text-before-edge">/callback</text></g><g transform="translate(2707.7174552850565 709.047828870707) rotate(0 167.32791137695312 17.5)"><text x="0" y="0" font-family="Virgil, Segoe UI Emoji" font-size="28px" fill="#2f9e44" text-anchor="start" style="white-space: pre;" direction="ltr" dominant-baseline="text-before-edge">pfportal.pnet.ch/grafana</text></g><g transform="translate(2730.5749469145208 768.9334838651266) rotate(0 29.133987426757812 17.5)"><text x="0" y="0" font-family="Virgil, Segoe UI Emoji" font-size="28px" fill="#2f9e44" text-anchor="start" style="white-space: pre;" direction="ltr" dominant-baseline="text-before-edge">302</text></g><g stroke-linecap="round"><g transform="translate(2414.9177203520203 355.21918943153287) rotate(0 -606.2857055664062 -173.14285278320312)"><path d="M0.88 1.08 C-58.09 -56.5, -150.97 -342.11, -353.19 -345.19 C-555.42 -348.27, -1069.38 -71.97, -1212.47 -17.41" stroke="#2f9e44" stroke-width="2.5" fill="none" stroke-dasharray="1.5 8"></path></g><g transform="translate(2414.9177203520203 355.21918943153287) rotate(0 -606.2857055664062 -173.14285278320312)"><path d="M-1194.6 -34.9 C-1199.05 -28.7, -1205.31 -22.3, -1212.47 -17.41" stroke="#2f9e44" stroke-width="2.5" fill="none" stroke-dasharray="1.5 6"></path></g><g transform="translate(2414.9177203520203 355.21918943153287) rotate(0 -606.2857055664062 -173.14285278320312)"><path d="M-1187.54 -19.33 C-1194.51 -18.55, -1203.24 -17.62, -1212.47 -17.41" stroke="#2f9e44" stroke-width="2.5" fill="none" stroke-dasharray="1.5 6"></path></g></g><mask></mask><g transform="translate(1588.0604031087173 426.93348386512645) rotate(0 61.389976501464844 17.5)"><text x="0" y="0" font-family="Virgil, Segoe UI Emoji" font-size="28px" fill="#2f9e44" text-anchor="start" style="white-space: pre;" direction="ltr" dominant-baseline="text-before-edge">/grafana</text></g><g transform="translate(1532.4138672263105 1217.1890369616838) rotate(359.3555703904963 79.44867706298834 18.390074523710467)"><text x="0" y="0" font-family="Virgil, Segoe UI Emoji" font-size="29.424119237936758px" fill="#2f9e44" text-anchor="start" style="white-space: pre;" direction="ltr" dominant-baseline="text-before-edge">/grafana/*</text></g><g transform="translate(1734.6557249343618 1526.654565899822) rotate(3.430805675854377 75.61397552490234 17.5)"><text x="0" y="0" font-family="Virgil, Segoe UI Emoji" font-size="28px" fill="#2f9e44" text-anchor="start" style="white-space: pre;" direction="ltr" dominant-baseline="text-before-edge">/grafana/*</text></g><g transform="translate(1729.5739377218124 1316.9232061854998) rotate(322.15802075806033 246.65188598632812 17.5)"><text x="0" y="0" font-family="Virgil, Segoe UI Emoji" font-size="28px" fill="#2f9e44" text-anchor="start" style="white-space: pre;" direction="ltr" dominant-baseline="text-before-edge">Header: x-webauth-user: [username]</text></g><g transform="translate(2083.8410362176737 706.4763741413541) rotate(0 29.133987426757812 17.5)"><text x="0" y="0" font-family="Virgil, Segoe UI Emoji" font-size="28px" fill="#e03131" text-anchor="start" style="white-space: pre;" direction="ltr" dominant-baseline="text-before-edge">302</text></g><g transform="translate(2267.8407920770487 716.4763741413541) rotate(0 29.133987426757812 17.5)"><text x="0" y="0" font-family="Virgil, Segoe UI Emoji" font-size="28px" fill="#e03131" text-anchor="start" style="white-space: pre;" direction="ltr" dominant-baseline="text-before-edge">302</text></g><g stroke-linecap="round"><g transform="translate(2557.774828331931 939.976374141354) rotate(0 -135.19995117187477 -222.39999389648432)"><path d="M0.4 1.17 C-44.37 -72.72, -224.4 -370.13, -269.7 -444.48" stroke="#e03131" stroke-width="2.5" fill="none" stroke-dasharray="1.5 8"></path></g><g transform="translate(2557.774828331931 939.976374141354) rotate(0 -135.19995117187477 -222.39999389648432)"><path d="M-250.2 -428.84 C-252.21 -430.91, -257.74 -437.05, -269.7 -444.48" stroke="#e03131" stroke-width="2.5" fill="none" stroke-dasharray="1.5 6"></path></g><g transform="translate(2557.774828331931 939.976374141354) rotate(0 -135.19995117187477 -222.39999389648432)"><path d="M-264.82 -419.96 C-263.67 -423.95, -266.12 -431.96, -269.7 -444.48" stroke="#e03131" stroke-width="2.5" fill="none" stroke-dasharray="1.5 6"></path></g></g><mask></mask><g stroke-linecap="round"><g transform="translate(2317.7748283319315 456.77636193432284) rotate(0 141.59997558593727 238.39999389648432)"><path d="M-0.55 -1.03 C46.68 78.21, 235.33 397.07, 282.51 476.53" stroke="#e03131" stroke-width="2.5" fill="none" stroke-dasharray="1.5 8"></path></g><g transform="translate(2317.7748283319315 456.77636193432284) rotate(0 141.59997558593727 238.39999389648432)"><path d="M263.18 460.68 C265.99 463.22, 271.65 466.84, 282.51 476.53" stroke="#e03131" stroke-width="2.5" fill="none" stroke-dasharray="1.5 6"></path></g><g transform="translate(2317.7748283319315 456.77636193432284) rotate(0 141.59997558593727 238.39999389648432)"><path d="M277.89 451.96 C277.44 456.41, 279.76 462.01, 282.51 476.53" stroke="#e03131" stroke-width="2.5" fill="none" stroke-dasharray="1.5 6"></path></g></g><mask></mask><g transform="translate(2240.9750236444315 616.7763619343228) rotate(0 60.395965576171875 17.5)"><text x="0" y="0" font-family="Virgil, Segoe UI Emoji" font-size="28px" fill="#e03131" text-anchor="start" style="white-space: pre;" direction="ltr" dominant-baseline="text-before-edge">/userinfo</text></g><g transform="translate(2474.574877160056 647.1763863483853) rotate(0 59.275962829589844 17.5)"><text x="0" y="0" font-family="Virgil, Segoe UI Emoji" font-size="28px" fill="#e03131" text-anchor="start" style="white-space: pre;" direction="ltr" dominant-baseline="text-before-edge">id_token</text></g><g stroke-linecap="round" transform="translate(2464.974779503806 640.7763619343228) rotate(0 68 22.399993896484375)"><path d="M11.2 0 C51.02 -2.65, 90.44 -2.07, 124.8 0 M11.2 0 C34.42 0.82, 58.91 0.3, 124.8 0 M124.8 0 C131.49 0.35, 136.59 4.06, 136 11.2 M124.8 0 C133.31 2.13, 134.48 5.26, 136 11.2 M136 11.2 C137.55 21.65, 136.92 30.67, 136 33.6 M136 11.2 C135.26 15.83, 136.86 20.71, 136 33.6 M136 33.6 C134.52 41.73, 134.14 44.83, 124.8 44.8 M136 33.6 C134.93 43.04, 134.25 46.38, 124.8 44.8 M124.8 44.8 C90.05 42.1, 60.16 44.35, 11.2 44.8 M124.8 44.8 C84.81 44.61, 47.17 45.97, 11.2 44.8 M11.2 44.8 C4.41 42.94, 0.44 39.88, 0 33.6 M11.2 44.8 C3.44 43.16, -2.05 41.52, 0 33.6 M0 33.6 C-0.27 25.39, 0.82 17.5, 0 11.2 M0 33.6 C-0.82 29.38, -0.69 23.7, 0 11.2 M0 11.2 C-1.79 3.83, 2.74 1.4, 11.2 0 M0 11.2 C-2.17 5.18, 3.9 0.01, 11.2 0" stroke="#e03131" stroke-width="2" fill="none"></path></g><g transform="translate(2631.374925988181 1050.3763680378383) rotate(0 59.275962829589844 17.5)"><text x="0" y="0" font-family="Virgil, Segoe UI Emoji" font-size="28px" fill="#e03131" text-anchor="start" style="white-space: pre;" direction="ltr" dominant-baseline="text-before-edge">id_token</text></g><g stroke-linecap="round" transform="translate(2621.774828331931 1043.9763436237758) rotate(0 68 22.399993896484375)"><path d="M11.2 0 C37.66 -0.91, 69.01 1.83, 124.8 0 M11.2 0 C55.74 0.98, 99.84 0.38, 124.8 0 M124.8 0 C133.28 -0.29, 136.73 4.08, 136 11.2 M124.8 0 C132.12 1.08, 136.36 4.27, 136 11.2 M136 11.2 C135.29 20.81, 137.54 26.1, 136 33.6 M136 11.2 C135.58 18.04, 135.09 24.19, 136 33.6 M136 33.6 C134.71 40.86, 132.03 46.19, 124.8 44.8 M136 33.6 C134.09 42.4, 130.68 43.82, 124.8 44.8 M124.8 44.8 C84.71 43.24, 47.36 43.17, 11.2 44.8 M124.8 44.8 C87.14 44.29, 50.63 45.53, 11.2 44.8 M11.2 44.8 C4.4 45.62, 0.13 39.93, 0 33.6 M11.2 44.8 C4.98 43.92, -1.25 42.33, 0 33.6 M0 33.6 C1.09 24.34, -1.87 16.33, 0 11.2 M0 33.6 C-0.54 24.16, -0.38 15.67, 0 11.2 M0 11.2 C-0.96 3.6, 3.61 -1.44, 11.2 0 M0 11.2 C0.35 1.86, 5.92 1.88, 11.2 0" stroke="#e03131" stroke-width="2" fill="none"></path></g><g stroke-linecap="round"><g transform="translate(2767.374925988181 1090.3763985554165) rotate(0 48 140)"><path d="M0.77 -0.32 C16.46 18.07, 95.01 64.32, 95.29 111.1 C95.58 157.88, 18.2 252.38, 2.49 280.36" stroke="#e03131" stroke-width="2.5" fill="none" stroke-dasharray="1.5 8"></path></g><g transform="translate(2767.374925988181 1090.3763985554165) rotate(0 48 140)"><path d="M8.54 256.11 C5.75 264.58, 2.39 276.85, 2.49 280.36" stroke="#e03131" stroke-width="2.5" fill="none" stroke-dasharray="1.5 6"></path></g><g transform="translate(2767.374925988181 1090.3763985554165) rotate(0 48 140)"><path d="M22.72 265.67 C14.25 270.44, 5.27 278.93, 2.49 280.36" stroke="#e03131" stroke-width="2.5" fill="none" stroke-dasharray="1.5 6"></path></g></g><mask></mask><g transform="translate(2796.174730675681 1053.5763497272915) rotate(0 40.52998352050781 17.5)"><text x="0" y="0" font-family="Virgil, Segoe UI Emoji" font-size="28px" fill="#e03131" text-anchor="start" style="white-space: pre;" direction="ltr" dominant-baseline="text-before-edge">/api/*</text></g><g stroke-linecap="round"><g transform="translate(2623.374925988181 946.3763375202602) rotate(0 50.39990234375 41.600006103515625)"><path d="M-0.49 0.63 C14.32 1.67, 72.3 -8.08, 89.12 5.72 C105.94 19.52, 98.46 70.34, 100.43 83.43" stroke="#e03131" stroke-width="2.5" fill="none" stroke-dasharray="1.5 8"></path></g><g transform="translate(2623.374925988181 946.3763375202602) rotate(0 50.39990234375 41.600006103515625)"><path d="M91.72 60 C95.52 69.51, 96.16 74.65, 100.43 83.43" stroke="#e03131" stroke-width="2.5" fill="none" stroke-dasharray="1.5 6"></path></g><g transform="translate(2623.374925988181 946.3763375202602) rotate(0 50.39990234375 41.600006103515625)"><path d="M108.82 59.88 C107.06 69.36, 102.15 74.54, 100.43 83.43" stroke="#e03131" stroke-width="2.5" fill="none" stroke-dasharray="1.5 6"></path></g></g><mask></mask><g stroke-linecap="round"><g transform="translate(2753.39348418238 1032.7343199767042) rotate(0 27.2000732421875 -49.5999755859375)"><path d="M-1.08 -1 C7.87 -12.57, 52.89 -52.66, 53.26 -69.21 C53.64 -85.75, 10.11 -95.09, 1.16 -100.26" stroke="#2f9e44" stroke-width="2.5" fill="none" stroke-dasharray="1.5 8"></path></g><g transform="translate(2753.39348418238 1032.7343199767042) rotate(0 27.2000732421875 -49.5999755859375)"><path d="M26.16 -99.83 C17.93 -102.06, 15.04 -98.34, 1.16 -100.26" stroke="#2f9e44" stroke-width="2.5" fill="none" stroke-dasharray="1.5 6"></path></g><g transform="translate(2753.39348418238 1032.7343199767042) rotate(0 27.2000732421875 -49.5999755859375)"><path d="M20.03 -83.86 C13.38 -90.23, 12.1 -90.69, 1.16 -100.26" stroke="#2f9e44" stroke-width="2.5" fill="none" stroke-dasharray="1.5 6"></path></g></g><mask></mask><g transform="translate(1751.3749259881815 1186.7764840046352) rotate(0 91.4199447631836 17.5)"><text x="0" y="0" font-family="Virgil, Segoe UI Emoji" font-size="28px" fill="#2f9e44" text-anchor="start" style="white-space: pre;" direction="ltr" dominant-baseline="text-before-edge">Authorization</text></g><g stroke-linecap="round" transform="translate(1733.7748283319315 1180.3763375202602) rotate(0 110.4000244140625 24.800018310546875)"><path d="M12.4 0 C74.24 0.93, 139.33 -0.79, 208.4 0 M12.4 0 C81.73 0.14, 151.46 0.72, 208.4 0 M208.4 0 C217.42 -0.9, 220.96 4.77, 220.8 12.4 M208.4 0 C217.48 1.11, 220.01 4.15, 220.8 12.4 M220.8 12.4 C219.21 20.95, 222.45 32.19, 220.8 37.2 M220.8 12.4 C220.94 18.05, 219.94 24.35, 220.8 37.2 M220.8 37.2 C219.79 46.39, 216.99 49.91, 208.4 49.6 M220.8 37.2 C220.79 45.78, 214.81 49.16, 208.4 49.6 M208.4 49.6 C135.11 50.97, 65.44 48.35, 12.4 49.6 M208.4 49.6 C151.77 48.35, 94.36 49.49, 12.4 49.6 M12.4 49.6 C5.94 50.34, -0.58 43.87, 0 37.2 M12.4 49.6 C5.84 47.64, -1.38 43.35, 0 37.2 M0 37.2 C0.96 30.92, -0.67 26.16, 0 12.4 M0 37.2 C-0.18 30.93, -0.97 22.33, 0 12.4 M0 12.4 C1.85 2.67, 3.81 -1.07, 12.4 0 M0 12.4 C-0.83 6.17, 2.76 2.09, 12.4 0" stroke="#2f9e44" stroke-width="2" fill="none"></path></g><g transform="translate(2560.1748527459936 1114.776453487057) rotate(0 91.4199447631836 17.5)"><text x="0" y="0" font-family="Virgil, Segoe UI Emoji" font-size="28px" fill="#2f9e44" text-anchor="start" style="white-space: pre;" direction="ltr" dominant-baseline="text-before-edge">Authorization</text></g><g stroke-linecap="round" transform="translate(2542.5747550897436 1108.376307002682) rotate(0 110.4000244140625 24.800018310546875)"><path d="M12.4 0 C81.52 -1.23, 152.3 -2.01, 208.4 0 M12.4 0 C60.01 -0.28, 106.5 -0.36, 208.4 0 M208.4 0 C214.8 1.02, 220.19 5.72, 220.8 12.4 M208.4 0 C216.1 1.1, 222.07 6.4, 220.8 12.4 M220.8 12.4 C221.8 19.3, 221.64 25.97, 220.8 37.2 M220.8 12.4 C220.7 20.76, 220.91 30.65, 220.8 37.2 M220.8 37.2 C220.07 45.34, 216.65 47.76, 208.4 49.6 M220.8 37.2 C221.96 45.08, 217.45 51.74, 208.4 49.6 M208.4 49.6 C155.2 51.97, 98.08 49.11, 12.4 49.6 M208.4 49.6 C137.41 48.73, 66.37 49.42, 12.4 49.6 M12.4 49.6 C4.62 48.47, -0.56 43.97, 0 37.2 M12.4 49.6 C3.9 48.34, -1.64 45.72, 0 37.2 M0 37.2 C-1.22 27.43, 0.28 17.88, 0 12.4 M0 37.2 C-0.64 31.38, 1.08 26.24, 0 12.4 M0 12.4 C-1.76 2.17, 2.16 0.44, 12.4 0 M0 12.4 C-1.98 5.26, 3.7 0.6, 12.4 0" stroke="#2f9e44" stroke-width="2" fill="none"></path></g><g stroke-linecap="round"><g transform="translate(2560.974779503806 1169.1763863483852) rotate(0 -207.19995117187477 33.5999755859375)"><path d="M0.6 -0.32 C-28.2 7.86, -102.71 38.16, -171.82 49.61 C-240.92 61.06, -373.53 65.3, -414.03 68.39" stroke="#2f9e44" stroke-width="2.5" fill="none" stroke-dasharray="1.5 8"></path></g><g transform="translate(2560.974779503806 1169.1763863483852) rotate(0 -207.19995117187477 33.5999755859375)"><path d="M-391.06 58.52 C-400.34 61.38, -408.58 66.81, -414.03 68.39" stroke="#2f9e44" stroke-width="2.5" fill="none" stroke-dasharray="1.5 6"></path></g><g transform="translate(2560.974779503806 1169.1763863483852) rotate(0 -207.19995117187477 33.5999755859375)"><path d="M-390.09 75.59 C-399.81 71.93, -408.42 70.83, -414.03 68.39" stroke="#2f9e44" stroke-width="2.5" fill="none" stroke-dasharray="1.5 6"></path></g></g><mask></mask><g stroke-opacity="0.4" fill-opacity="0.4" transform="translate(2045.394930260642 1422.2763008991665) rotate(0 53.17994689941406 12.5)"><text x="0" y="0" font-family="Virgil, Segoe UI Emoji" font-size="20px" fill="#1e1e1e" text-anchor="start" style="white-space: pre;" direction="ltr" dominant-baseline="text-before-edge">Deployment</text></g><g stroke-opacity="0.6" fill-opacity="0.6" transform="translate(724.1747306756819 869.9763131061978) rotate(0 73.4019775390625 17.5)"><text x="0" y="0" font-family="Virgil, Segoe UI Emoji" font-size="28px" fill="#343a40" text-anchor="start" style="white-space: pre;" direction="ltr" dominant-baseline="text-before-edge">Namespace</text></g><g stroke-opacity="0.6" fill-opacity="0.6" stroke-linecap="round" transform="translate(751.5248091751631 655.2155254811946) rotate(0 24.614708156712055 26.703163370709404)"><path d="M12.31 0 C16.84 -1.23, 21.01 0.31, 36.92 0 C48.27 3.02, 48.47 2.06, 49.23 12.31 C46.32 20.42, 51.11 30.04, 49.23 41.1 C48.33 47.16, 46.28 56.54, 36.92 53.41 C24.48 51.38, 21.6 51.01, 12.31 53.41 C3.05 53.59, -3.04 46.24, 0 41.1 C-0.26 32.74, -1.97 24.01, 0 12.31 C2.17 1.52, 4.19 3.25, 12.31 0" stroke="none" stroke-width="0" fill="#e03131"></path><path d="M12.31 0 C20.77 -2.1, 30.47 -2.11, 36.92 0 M12.31 0 C17.99 0.46, 22.98 -0.72, 36.92 0 M36.92 0 C45.77 1.99, 48.13 2.19, 49.23 12.31 M36.92 0 C46.52 -0.52, 47.82 2.22, 49.23 12.31 M49.23 12.31 C49.21 20.14, 51.19 32.55, 49.23 41.1 M49.23 12.31 C49.61 18.12, 49.27 24.9, 49.23 41.1 M49.23 41.1 C47.62 48.38, 47.06 53.37, 36.92 53.41 M49.23 41.1 C47.59 49.53, 43.12 51.32, 36.92 53.41 M36.92 53.41 C29.24 54.28, 19.46 55.38, 12.31 53.41 M36.92 53.41 C30.56 53.02, 23.83 54.11, 12.31 53.41 M12.31 53.41 C2.4 53.47, 0.46 49.6, 0 41.1 M12.31 53.41 C3.26 54.63, -0.63 49.47, 0 41.1 M0 41.1 C-1.76 33.73, -1.85 28.6, 0 12.31 M0 41.1 C-0.17 31.65, -0.26 20.19, 0 12.31 M0 12.31 C-1.21 4.88, 5.94 -0.13, 12.31 0 M0 12.31 C-2.02 4.39, 5.99 2.25, 12.31 0" stroke="#e03131" stroke-width="2" fill="none"></path></g><g stroke-opacity="0.6" fill-opacity="0.6" transform="translate(829.9629706964279 663.8162253983254) rotate(0 125.68193054199222 17.09351835033995)"><text x="0" y="0" font-family="Virgil, Segoe UI Emoji" font-size="27.349629360543915px" fill="#e03131" text-anchor="start" style="white-space: pre;" direction="ltr" dominant-baseline="text-before-edge">Not Authenticated</text></g><g stroke-opacity="0.6" fill-opacity="0.6" stroke-linecap="round" transform="translate(747.7196184135114 753.6754850373416) rotate(0 24.56584324845096 25.535557646241223)"><path d="M12.28 0 C24.9 1.89, 28.61 -2.09, 36.85 0 C44.28 0.71, 51.66 6.11, 49.13 12.28 C52.57 17.6, 49.57 23.99, 49.13 38.79 C51.16 43.74, 44.75 51.64, 36.85 51.07 C26.04 53.61, 18.42 51.16, 12.28 51.07 C3.74 50.28, -2.24 47.01, 0 38.79 C-2.79 28.9, 2.04 18.77, 0 12.28 C1.85 6.3, 4.38 -1.05, 12.28 0" stroke="none" stroke-width="0" fill="#2f9e44"></path><path d="M12.28 0 C21.67 1.39, 31.46 -1.73, 36.85 0 M12.28 0 C19.85 0.56, 25.53 -0.43, 36.85 0 M36.85 0 C46.73 -1.59, 51.06 2.72, 49.13 12.28 M36.85 0 C43.09 -1.92, 47.04 5.03, 49.13 12.28 M49.13 12.28 C47.94 18.65, 49.17 26.26, 49.13 38.79 M49.13 12.28 C49.33 18.99, 48.2 24.88, 49.13 38.79 M49.13 38.79 C50 47.03, 47 52.56, 36.85 51.07 M49.13 38.79 C48.04 46.39, 42.84 50.02, 36.85 51.07 M36.85 51.07 C31.23 49.24, 21.1 51.5, 12.28 51.07 M36.85 51.07 C27.71 50.23, 20.7 50.73, 12.28 51.07 M12.28 51.07 C2.56 50.95, -0.16 48.19, 0 38.79 M12.28 51.07 C4.48 50.72, -0.61 44.84, 0 38.79 M0 38.79 C1.6 34.29, -0.56 27.12, 0 12.28 M0 38.79 C-0.16 29.06, -0.56 17.96, 0 12.28 M0 12.28 C1.33 2.19, 2.17 1.94, 12.28 0 M0 12.28 C-1.51 6.02, 5.39 0.02, 12.28 0" stroke="#2f9e44" stroke-width="2" fill="none"></path></g><g stroke-opacity="0.6" fill-opacity="0.6" transform="translate(836.6700017254666 762.726070547179) rotate(0 94.74673461914062 17.09351835033995)"><text x="0" y="0" font-family="Virgil, Segoe UI Emoji" font-size="27.349629360543915px" fill="#2f9e44" text-anchor="start" style="white-space: pre;" direction="ltr" dominant-baseline="text-before-edge">Authenticated</text></g><g transform="translate(2637.0795986924595 104.94510165290092) rotate(0 293.7598876953125 22.5)"><text x="0" y="0" font-family="Virgil, Segoe UI Emoji" font-size="36px" fill="#1e1e1e" text-anchor="start" style="white-space: pre;" direction="ltr" dominant-baseline="text-before-edge">garp: grafana-auth-reverse-proxy</text></g><g transform="translate(1904.8039674580818 1055.9263671882227) rotate(0 37.63798522949219 22.5)"><text x="0" y="0" font-family="Virgil, Segoe UI Emoji" font-size="36px" fill="#1e1e1e" text-anchor="start" style="white-space: pre;" direction="ltr" dominant-baseline="text-before-edge">garp</text></g><g stroke-linecap="round" transform="translate(925.809720622566 1512.127530741757) rotate(0 191.32214299703537 182.81882671573362)"><path d="M240 45.75 C261.55 66.25, 280.48 85.36, 334.64 137.25 M240 45.75 C268.91 75.13, 300.85 104.31, 334.64 137.25 M334.64 137.25 C384.04 184.41, 382.66 181.19, 334.64 228.75 M334.64 137.25 C383.65 182.12, 384.74 184, 334.64 228.75 M334.64 228.75 C309.86 257.11, 280.75 280.32, 240 319.89 M334.64 228.75 C311.19 252.37, 287.44 273.36, 240 319.89 M240 319.89 C192.18 365.93, 191.65 364.23, 144 319.89 M240 319.89 C191.29 363.99, 190.62 364.84, 144 319.89 M144 319.89 C111.08 286.24, 74.46 253.71, 48 228.75 M144 319.89 C120.46 297.79, 97.16 275.86, 48 228.75 M48 228.75 C-1.08 183.56, -0.62 184.85, 48 137.25 M48 228.75 C-1.84 183.84, -0.08 181.96, 48 137.25 M48 137.25 C70.67 116.99, 93.29 97.16, 144 45.75 M48 137.25 C72.87 112.72, 96.56 89.22, 144 45.75 M144 45.75 C191.38 -1.95, 191.65 0.71, 240 45.75 M144 45.75 C191.26 -2.23, 191.94 0.99, 240 45.75" stroke="#1e1e1e" stroke-width="2" fill="none"></path></g><g stroke-opacity="0.5" fill-opacity="0.5" transform="translate(1055.4836923284174 1633.297942887724) rotate(0 58.499969482421875 22.5)"><text x="0" y="0" font-family="Virgil, Segoe UI Emoji" font-size="36px" fill="#1e1e1e" text-anchor="start" style="white-space: pre;" direction="ltr" dominant-baseline="text-before-edge">ingress</text></g><g transform="translate(941.9461521596246 1683.1102792811712) rotate(0 175.11984252929688 12.5)"><text x="0" y="0" font-family="Virgil, Segoe UI Emoji" font-size="20px" fill="#1e1e1e" text-anchor="start" style="white-space: pre;" direction="ltr" dominant-baseline="text-before-edge">grafana-api.p1-management-a.pnet.ch</text></g><g stroke-linecap="round" transform="translate(10 1621.2748756013395) rotate(0 297.8494690828052 104.87616879481322)"><path d="M0 0 C214.96 0.18, 431.41 -0.45, 595.7 0 M0 0 C169.59 -1.21, 340.01 -1.19, 595.7 0 M595.7 0 C593.67 69.8, 592.98 140.44, 595.7 209.75 M595.7 0 C594.76 60.71, 595.79 122.72, 595.7 209.75 M595.7 209.75 C384.6 210.55, 174.07 210.32, 0 209.75 M595.7 209.75 C393.95 208.99, 192.58 208.74, 0 209.75 M0 209.75 C-0.78 138.21, 1.18 69.68, 0 0 M0 209.75 C0.45 152.53, -0.49 94.77, 0 0" stroke="#1e1e1e" stroke-width="2" fill="none"></path></g><g transform="translate(41.91069281978696 1697.128837274273) rotate(0 109.01953125 15.949163207886784)"><text x="0" y="0" font-family="Cascadia, Segoe UI Emoji" font-size="26.58193867981131px" fill="#1e1e1e" text-anchor="start" style="white-space: pre;" direction="ltr" dominant-baseline="text-before-edge">nginx-snipped:</text></g><g transform="translate(29.954494721295646 1726.7266984574972) rotate(0 281.4345703125 42.17634955183627)"><text x="0" y="0" font-family="Cascadia, Segoe UI Emoji" font-size="23.431305306575695px" fill="#1e1e1e" text-anchor="start" style="white-space: pre;" direction="ltr" dominant-baseline="text-before-edge">      proxy_set_header X-WEBAUTH-USER "";</text><text x="0" y="28.117566367890834" font-family="Cascadia, Segoe UI Emoji" font-size="23.431305306575695px" fill="#1e1e1e" text-anchor="start" style="white-space: pre;" direction="ltr" dominant-baseline="text-before-edge">      proxy_set_header X-WEBAUTH-NAME "";</text><text x="0" y="56.23513273578167" font-family="Cascadia, Segoe UI Emoji" font-size="23.431305306575695px" fill="#1e1e1e" text-anchor="start" style="white-space: pre;" direction="ltr" dominant-baseline="text-before-edge">      proxy_set_header X-WEBAUTH-ROLE "";</text></g><g stroke-opacity="0.4" fill-opacity="0.4" transform="translate(1029.1359077785992 1734.330403872601) rotate(0 92.58196258544922 17.5)"><text x="0" y="0" font-family="Virgil, Segoe UI Emoji" font-size="28px" fill="#1e1e1e" text-anchor="start" style="white-space: pre;" direction="ltr" dominant-baseline="text-before-edge">/grafan/api/*</text></g><g stroke-linecap="round"><g transform="translate(11.552180088738623 1675.3166928898263) rotate(0 66.64166445453014 0)"><path d="M0 0 C47.03 0.87, 95.19 -0.97, 133.28 0 M0 0 C32.46 -0.17, 65.43 -1.42, 133.28 0" stroke="#1e1e1e" stroke-width="2" fill="none"></path></g></g><mask></mask><g stroke-linecap="round"><g transform="translate(143.009668468658 1676.2295783300492) rotate(0 30.125672243876522 -26.930538378748395)"><path d="M0 0 C12.61 -11.59, 27.98 -22.6, 60.25 -53.86 M0 0 C13.03 -11.16, 25.94 -24.96, 60.25 -53.86" stroke="#1e1e1e" stroke-width="2" fill="none"></path></g></g><mask></mask><g transform="translate(39.85208145216893 1635.1491066817593) rotate(0 38.20597839355469 17.5)"><text x="0" y="0" font-family="Virgil, Segoe UI Emoji" font-size="28px" fill="#1e1e1e" text-anchor="start" style="white-space: pre;" direction="ltr" dominant-baseline="text-before-edge">config</text></g><g stroke-linecap="round"><g transform="translate(963.4036771586863 1631.0956742915296) rotate(0 -171.35917474150096 1.1446709616470798)"><path d="M0 0 C-111.3 0.74, -222.6 1.49, -342.72 2.29" stroke="#1e1e1e" stroke-width="4.5" fill="none" stroke-dasharray="8 12"></path></g><g transform="translate(963.4036771586863 1631.0956742915296) rotate(0 -171.35917474150096 1.1446709616470798)"><path d="M-319.28 -6.42 C-326.89 -3.59, -334.51 -0.76, -342.72 2.29" stroke="#1e1e1e" stroke-width="4.5" fill="none"></path></g><g transform="translate(963.4036771586863 1631.0956742915296) rotate(0 -171.35917474150096 1.1446709616470798)"><path d="M-319.17 10.68 C-326.82 7.96, -334.47 5.23, -342.72 2.29" stroke="#1e1e1e" stroke-width="4.5" fill="none"></path></g></g><mask></mask><g stroke-opacity="0.4" fill-opacity="0.4" transform="translate(1045.5322439023391 1300.0495096915301) rotate(0 75.61397552490234 17.5)"><text x="0" y="0" font-family="Virgil, Segoe UI Emoji" font-size="28px" fill="#1e1e1e" text-anchor="start" style="white-space: pre;" direction="ltr" dominant-baseline="text-before-edge">/grafana/*</text></g><g stroke-linecap="round" transform="translate(988.6958182372143 2232.514124351542) rotate(0 84.99999999999989 80)"><path d="M123.95 9.29 C134.07 12.92, 143.1 21.59, 150.12 29.91 C157.13 38.24, 162.84 48.95, 166.06 59.24 C169.28 69.52, 170.87 80.88, 169.43 91.63 C167.99 102.38, 163.81 114.55, 157.42 123.72 C151.02 132.9, 140.96 140.73, 131.08 146.69 C121.21 152.65, 109.59 157.8, 98.17 159.47 C86.76 161.15, 73.51 159.73, 62.6 156.74 C51.68 153.75, 41.39 148.24, 32.67 141.55 C23.94 134.86, 15.52 126.18, 10.25 116.59 C4.99 106.99, 1.74 94.77, 1.07 83.97 C0.4 73.17, 2.21 61.88, 6.22 51.78 C10.22 41.68, 17.17 31.06, 25.12 23.38 C33.07 15.71, 43.23 9.49, 53.92 5.72 C64.62 1.95, 75.81 -0.73, 89.27 0.77 C102.74 2.26, 125.73 10.73, 134.7 14.69 C143.68 18.65, 143.85 23.49, 143.12 24.52 M100.5 2.84 C111.94 4, 125.9 10, 135.37 15.86 C144.84 21.73, 151.69 28.73, 157.32 38.03 C162.95 47.33, 167.51 60.48, 169.15 71.65 C170.79 82.82, 170.7 95.02, 167.18 105.05 C163.66 115.09, 155.99 123.73, 148.04 131.84 C140.1 139.96, 129.95 148.92, 119.5 153.73 C109.06 158.55, 96.52 160.6, 85.37 160.74 C74.21 160.88, 63.21 159, 52.56 154.59 C41.92 150.19, 29.43 142.27, 21.51 134.3 C13.59 126.33, 8.48 117.23, 5.04 106.78 C1.61 96.33, -0.11 82.74, 0.93 71.6 C1.96 60.47, 5.79 49.24, 11.26 39.99 C16.74 30.74, 24.48 22.61, 33.79 16.12 C43.09 9.63, 55.6 3.52, 67.09 1.04 C78.58 -1.44, 97.03 0.82, 102.74 1.23 C108.46 1.63, 101.82 2.15, 101.37 3.48" stroke="#1e1e1e" stroke-width="2" fill="none"></path></g><g stroke-linecap="round"><g transform="translate(1070.695787719636 2394.514093833963) rotate(0 2.0000457763671875 65.99998474121094)"><path d="M1.12 0.76 C1.6 22.79, 3.41 111.01, 4.03 132.73 M0.25 0.11 C0.48 21.76, 2.39 109.03, 3.1 131" stroke="#1e1e1e" stroke-width="2" fill="none"></path></g></g><mask></mask><g stroke-linecap="round"><g transform="translate(1076.6958487547922 2528.5141090927523) rotate(0 -35.999984741210824 28.000030517578125)"><path d="M0.03 0.73 C-12.02 9.79, -59.26 46.07, -71.17 55.08 M-1.41 0.07 C-13.65 9.19, -59.93 46.89, -71.68 56.14" stroke="#1e1e1e" stroke-width="2" fill="none"></path></g></g><mask></mask><g stroke-linecap="round"><g transform="translate(1072.6957572020578 2532.5141243515413) rotate(0 25 20.999984741210938)"><path d="M0.83 -0.92 C9.25 5.77, 42.32 33.6, 50.55 40.84 M-0.19 1.22 C8.12 7.94, 41.6 35.23, 49.9 41.77" stroke="#1e1e1e" stroke-width="2" fill="none"></path></g></g><mask></mask><g stroke-linecap="round"><g transform="translate(1076.6958487547922 2444.514093833963) rotate(0 70 -33.999977111816406)"><path d="M0.55 -1.16 C23.79 -12.26, 117.12 -56.54, 140.24 -67.48 M-0.61 0.84 C22.41 -10.53, 115.69 -57.77, 139.41 -69.34" stroke="#1e1e1e" stroke-width="2" fill="none"></path></g></g><mask></mask><g stroke-linecap="round"><g transform="translate(1052.6957572020578 2442.5141243515413) rotate(0 -49.999999999999886 -17.99999237060547)"><path d="M0.24 0.52 C-16.65 -5.1, -84.12 -28.65, -100.75 -34.83 M-1.1 -0.26 C-17.64 -6.07, -81.93 -30.46, -98.43 -36.34" stroke="#1e1e1e" stroke-width="2" fill="none"></path></g></g><mask></mask><g stroke-linecap="round"><g stroke-opacity="0.4" fill-opacity="0.4" transform="translate(1104.737094568659 2203.627754350373) rotate(0 0.839679203843616 -151.15603137744586)"><path d="M0 0 C0.39 -69.76, 0.78 -139.51, 1.68 -302.31 M0 0 C0.46 -82.27, 0.91 -164.55, 1.68 -302.31" stroke="#f08c00" stroke-width="4" fill="none"></path></g><g stroke-opacity="0.4" fill-opacity="0.4" transform="translate(1104.737094568659 2203.627754350373) rotate(0 0.839679203843616 -151.15603137744586)"><path d="M10.1 -278.77 C8.16 -284.2, 6.21 -289.64, 1.68 -302.31 M10.1 -278.77 C7.81 -285.18, 5.52 -291.59, 1.68 -302.31" stroke="#f08c00" stroke-width="4" fill="none"></path></g><g stroke-opacity="0.4" fill-opacity="0.4" transform="translate(1104.737094568659 2203.627754350373) rotate(0 0.839679203843616 -151.15603137744586)"><path d="M-7 -278.87 C-5 -284.28, -3 -289.69, 1.68 -302.31 M-7 -278.87 C-4.64 -285.25, -2.28 -291.63, 1.68 -302.31" stroke="#f08c00" stroke-width="4" fill="none"></path></g></g><mask></mask><g stroke-linecap="round"><g stroke-opacity="0.4" fill-opacity="0.4" transform="translate(1279.4062579077936 1637.6322678375664) rotate(0 145.2778284724045 0)"><path d="M0 0 C95.64 0, 191.27 0, 290.56 0 M0 0 C108.19 0, 216.38 0, 290.56 0" stroke="#f08c00" stroke-width="4" fill="none"></path></g><g stroke-opacity="0.4" fill-opacity="0.4" transform="translate(1279.4062579077936 1637.6322678375664) rotate(0 145.2778284724045 0)"><path d="M267.06 8.55 C274.8 5.74, 282.53 2.92, 290.56 0 M267.06 8.55 C275.81 5.37, 284.56 2.18, 290.56 0" stroke="#f08c00" stroke-width="4" fill="none"></path></g><g stroke-opacity="0.4" fill-opacity="0.4" transform="translate(1279.4062579077936 1637.6322678375664) rotate(0 145.2778284724045 0)"><path d="M267.06 -8.55 C274.8 -5.74, 282.53 -2.92, 290.56 0 M267.06 -8.55 C275.81 -5.37, 284.56 -2.18, 290.56 0" stroke="#f08c00" stroke-width="4" fill="none"></path></g></g><mask></mask><g stroke-linecap="round"><g stroke-opacity="0.4" fill-opacity="0.4" transform="translate(1761.4261999079322 1624.1961832782717) rotate(0 157.87416975955057 51.22510842073234)"><path d="M0 0 C86.05 27.92, 172.09 55.84, 315.75 102.45 M0 0 C97.86 31.75, 195.71 63.5, 315.75 102.45" stroke="#f08c00" stroke-width="4" fill="none"></path></g><g stroke-opacity="0.4" fill-opacity="0.4" transform="translate(1761.4261999079322 1624.1961832782717) rotate(0 157.87416975955057 51.22510842073234)"><path d="M290.76 103.33 C297.57 103.09, 304.38 102.85, 315.75 102.45 M290.76 103.33 C298.51 103.06, 306.25 102.79, 315.75 102.45" stroke="#f08c00" stroke-width="4" fill="none"></path></g><g stroke-opacity="0.4" fill-opacity="0.4" transform="translate(1761.4261999079322 1624.1961832782717) rotate(0 157.87416975955057 51.22510842073234)"><path d="M296.04 87.07 C301.41 91.26, 306.78 95.45, 315.75 102.45 M296.04 87.07 C302.15 91.83, 308.26 96.6, 315.75 102.45" stroke="#f08c00" stroke-width="4" fill="none"></path></g></g><mask></mask><g stroke-linecap="round"><g stroke-opacity="0.4" fill-opacity="0.4" transform="translate(1833.6452745422125 1597.3239500913776) rotate(0 115.04655812861051 -19.314383566793197)"><path d="M0 0 C76.13 -12.78, 152.27 -25.56, 230.09 -38.63 M0 0 C49.18 -8.26, 98.36 -16.51, 230.09 -38.63" stroke="#f08c00" stroke-width="4" fill="none"></path></g><g stroke-opacity="0.4" fill-opacity="0.4" transform="translate(1833.6452745422125 1597.3239500913776) rotate(0 115.04655812861051 -19.314383566793197)"><path d="M208.34 -26.31 C215.54 -30.38, 222.74 -34.46, 230.09 -38.63 M208.34 -26.31 C212.99 -28.94, 217.64 -31.57, 230.09 -38.63" stroke="#f08c00" stroke-width="4" fill="none"></path></g><g stroke-opacity="0.4" fill-opacity="0.4" transform="translate(1833.6452745422125 1597.3239500913776) rotate(0 115.04655812861051 -19.314383566793197)"><path d="M205.51 -43.17 C213.64 -41.67, 221.78 -40.17, 230.09 -38.63 M205.51 -43.17 C210.76 -42.2, 216.02 -41.23, 230.09 -38.63" stroke="#f08c00" stroke-width="4" fill="none"></path></g></g><mask></mask><g stroke-opacity="0.4" fill-opacity="0.4" transform="translate(1141.686311089643 2065.4880319986046) rotate(0 277.6058654785156 17.5)"><text x="0" y="0" font-family="Virgil, Segoe UI Emoji" font-size="28px" fill="#f08c00" text-anchor="start" style="white-space: pre;" direction="ltr" dominant-baseline="text-before-edge">Authentication: Beaerer [Service-Token]</text></g><g stroke-opacity="0.6" fill-opacity="0.6" stroke-linecap="round" transform="translate(742.8689744309711 2016.5313836085813) rotate(0 24.614708156712055 26.703163370709376)"><path d="M12.31 0 C19.47 1.73, 26.8 -0.56, 36.92 0 C44.91 -2.9, 48.59 2.39, 49.23 12.31 C47.22 17.21, 49.86 25.57, 49.23 41.1 C48.41 47.97, 47.37 50.19, 36.92 53.41 C31.64 56.73, 17.56 51.09, 12.31 53.41 C6.83 56.61, 2.67 49.04, 0 41.1 C1 31.12, -0.44 22.83, 0 12.31 C3.18 5.86, 2.59 -1.51, 12.31 0" stroke="none" stroke-width="0" fill="#f08c00"></path><path d="M12.31 0 C21.16 1.89, 29.43 -0.71, 36.92 0 M12.31 0 C19.25 0.21, 24.07 0.72, 36.92 0 M36.92 0 C44.25 1.09, 49.4 4.95, 49.23 12.31 M36.92 0 C46.16 1.28, 47.94 5.64, 49.23 12.31 M49.23 12.31 C49.73 17.66, 48.7 26.09, 49.23 41.1 M49.23 12.31 C48.91 23.13, 48.41 34.27, 49.23 41.1 M49.23 41.1 C48.51 49.24, 45.12 52.21, 36.92 53.41 M49.23 41.1 C50.72 49.66, 46.43 53.28, 36.92 53.41 M36.92 53.41 C26.91 54.83, 18.19 52.78, 12.31 53.41 M36.92 53.41 C31.71 52.91, 25.42 52.37, 12.31 53.41 M12.31 53.41 C4.33 52.39, 0.03 48.31, 0 41.1 M12.31 53.41 C3.98 53.44, 1.18 51.1, 0 41.1 M0 41.1 C1.41 33.7, -0.58 27.04, 0 12.31 M0 41.1 C0.67 30.85, -1.04 23.04, 0 12.31 M0 12.31 C-0.19 4.69, 5.68 -0.04, 12.31 0 M0 12.31 C-0.33 5.99, 3.68 -0.85, 12.31 0" stroke="#f08c00" stroke-width="2" fill="none"></path></g><g stroke-opacity="0.6" fill-opacity="0.6" transform="translate(821.307135952236 2025.132083525712) rotate(0 86.88648223876953 17.09351835033999)"><text x="0" y="0" font-family="Virgil, Segoe UI Emoji" font-size="27.349629360543915px" fill="#f08c00" text-anchor="start" style="white-space: pre;" direction="ltr" dominant-baseline="text-before-edge">API Request</text></g></svg>